<svg width="1920" height="769" viewBox="0 0 1920 769" fill="none" xmlns="http://www.w3.org/2000/svg">
<rect width="1920" height="768" transform="translate(0 0.202148)" fill="white"/>
<path d="M385.732 245.346C458.841 245.346 518.319 304.834 518.319 377.958C518.319 406.512 509.219 432.961 493.812 454.626L530.152 490.973L498.729 522.405L462.389 486.058C440.727 501.469 414.28 510.571 385.732 510.571C312.623 510.571 253.146 451.081 253.146 377.958C253.146 304.834 312.623 245.346 385.732 245.346ZM634.542 404.358C634.542 441.632 654.762 465.426 692.03 465.426C731.279 465.426 749.518 440.443 749.518 404.358V250.5H798.679V406.341C798.679 471.373 757.051 510.632 692.03 510.632C627.009 510.632 585.381 471.374 585.381 406.341V250.5H634.542V404.358ZM1565.45 245.343C1618.97 245.343 1661.79 274.292 1661.79 327.427V328.221H1612.63C1612.63 302.05 1588.45 290.549 1564.26 290.549C1541.27 290.549 1513.51 298.877 1513.51 321.876C1513.51 347.652 1547.61 350.823 1572.19 355.979C1576.16 356.772 1580.12 357.565 1584.08 358.358C1631.66 366.685 1664.17 387.306 1664.17 432.116C1664.17 484.855 1615.8 510.63 1561.49 510.63C1498.45 510.63 1461.58 475.339 1457.61 422.995V422.598H1507.57C1509.95 451.15 1536.11 465.424 1565.45 465.424C1589.64 465.424 1620.16 457.097 1620.16 432.909C1620.16 407.133 1584.08 404.358 1559.5 399.598C1557.12 399.202 1551.57 398.013 1548.8 397.616C1500.43 388.496 1468.71 372.237 1468.71 323.462C1468.71 281.825 1505.98 245.343 1565.45 245.343ZM1166.17 245.343C1216.92 245.343 1258.54 283.412 1258.54 340.911V505.08H1209.38V352.806C1209.38 311.962 1185.2 290.549 1153.48 290.549C1118.59 290.549 1094.41 311.962 1094.41 351.617V505.08H1045.25V351.617C1045.25 311.962 1021.06 290.549 989.346 290.549C954.457 290.549 930.272 311.962 930.271 351.617V505.08H881.11V250.498H928.687V284.205H932.65C948.51 257.637 974.28 245.343 1002.83 245.343C1035.73 245.343 1063.48 261.602 1078.95 294.911H1084.5C1100.75 264.377 1128.5 245.343 1166.17 245.343ZM1390.6 505.08H1341.44V250.5H1390.6V505.08ZM385.732 289.791C337.126 289.791 297.583 329.343 297.583 377.958C297.583 426.574 337.126 466.124 385.732 466.125C401.989 466.125 417.221 461.682 430.31 453.973L370.021 393.673L401.445 362.244L461.734 422.542C469.44 409.451 473.882 394.217 473.882 377.958C473.882 329.343 434.339 289.791 385.732 289.791Z" fill="#242424"/>
</svg>
