<svg width="768" height="769" viewBox="0 0 768 769" fill="none" xmlns="http://www.w3.org/2000/svg">
<rect width="768" height="768" transform="translate(0 0.200195)" fill="white"/>
<path d="M331.814 300.095C345.134 292.272 360.346 288.095 376.2 288.095C399.671 288.095 421.738 297.236 438.334 313.832C454.93 330.428 464.071 352.495 464.071 375.966C464.071 391.821 459.894 407.033 452.071 420.353L331.814 300.095ZM300.483 331.316L420.851 451.683C407.468 459.606 392.16 463.837 376.2 463.837C352.73 463.837 330.663 454.697 314.067 438.099C297.47 421.503 288.33 399.437 288.33 375.966C288.33 360.006 292.56 344.698 300.483 331.316ZM452.991 558.798C428.543 569.138 402.562 574.381 375.766 574.381C348.97 574.381 322.987 569.138 298.54 558.798C274.915 548.806 253.694 534.495 235.464 516.266C217.235 498.038 202.926 476.815 192.934 453.191C182.593 428.745 177.349 402.762 177.349 375.966C177.349 349.17 182.593 323.188 192.934 298.74C202.926 275.116 217.235 253.894 235.464 235.666C253.694 217.436 274.916 203.127 298.54 193.134C322.987 182.794 348.97 177.551 375.766 177.551C402.562 177.551 428.543 182.794 452.991 193.134C476.615 203.127 497.838 217.436 516.066 235.666C534.295 253.894 548.604 275.116 558.598 298.74C568.938 323.188 574.18 349.17 574.18 375.966C574.18 402.762 568.938 428.745 558.598 453.191C551.546 469.865 542.34 485.338 531.128 499.41L484.03 452.311C489.53 444.559 494.174 436.23 497.911 427.393C504.806 411.093 508.3 393.79 508.3 375.966C508.3 358.142 504.806 340.839 497.911 324.539C491.256 308.806 481.735 294.682 469.61 282.556C457.484 270.432 443.36 260.91 427.627 254.255C411.327 247.36 394.024 243.866 376.2 243.866C358.376 243.866 341.074 247.36 324.774 254.255C309.04 260.91 294.916 270.432 282.791 282.556C270.666 294.682 261.144 308.806 254.49 324.539C247.595 340.839 244.1 358.142 244.1 375.966C244.1 393.79 247.595 411.093 254.49 427.393C261.144 443.126 270.666 457.25 282.791 469.375C294.916 481.501 309.04 491.022 324.774 497.677C341.074 504.571 358.376 508.066 376.2 508.066C394.024 508.066 411.327 504.571 427.627 497.677C436.556 493.899 444.966 489.197 452.788 483.621L499.926 530.758C485.664 542.23 469.946 551.626 452.991 558.798ZM634.89 603.171L562.567 530.85C577.721 512.618 590.05 492.373 599.334 470.422C611.993 440.493 618.411 408.713 618.411 375.966C618.411 343.219 611.993 311.439 599.334 281.511C587.111 252.614 569.619 226.667 547.342 204.39C525.064 182.112 499.118 164.62 470.22 152.398C440.292 139.739 408.512 133.32 375.766 133.32C343.019 133.32 311.239 139.739 281.31 152.398C252.414 164.62 226.466 182.112 204.19 204.39C181.912 226.667 164.419 252.614 152.197 281.511C139.537 311.439 133.12 343.219 133.12 375.966C133.12 408.713 139.537 440.493 152.197 470.422C164.419 499.318 181.912 525.266 204.19 547.542C226.466 569.819 252.414 587.311 281.31 599.534C311.239 612.193 343.019 618.611 375.766 618.611C408.512 618.611 440.292 612.193 470.22 599.534C492.454 590.13 512.938 577.605 531.35 562.182L603.614 634.447L634.89 603.171Z" fill="#242424"/>
</svg>
